<svg width="240" height="240" viewBox="0 0 240 240" fill="none" xmlns="http://www.w3.org/2000/svg">
<path d="M196.771 116.11V195.39C196.771 197.8 195.451 200.016 193.331 201.165L123.132 239.2C121.178 240.258 118.822 240.258 116.874 239.2L46.6694 201.165C44.5548 200.017 43.2344 197.8 43.2344 195.39V116.11H196.771Z" fill="#247CFF"/>
<path d="M196.771 130.375V157.349L156.207 179.327C154.597 180.196 152.702 180.357 150.969 179.772L120.002 169.285V130.375H196.771Z" fill="#247CFF"/>
<path d="M182.893 116.11V206.82L193.333 201.164C195.452 200.015 196.772 197.798 196.772 195.388V116.11H182.893Z" fill="#247CFF"/>
<path d="M120.003 116.11V240C118.924 240 117.851 239.737 116.868 239.206L46.6694 201.165C44.5548 200.011 43.2344 197.799 43.2344 195.39V116.11H120.003Z" fill="#149CFF"/>
<path d="M120.003 130.375V169.285L89.0303 179.772C87.302 180.357 85.4022 180.196 83.7977 179.327L43.2344 157.349V130.375H120.003Z" fill="#149CFF"/>
<path d="M106.385 116.11V233.521L116.869 239.203C117.848 239.735 118.925 239.998 120.002 239.998V116.11H106.385Z" fill="#149CFF"/>
<path d="M120.001 74.5151L43.2314 116.111L120.001 157.706L196.771 116.111L120.001 74.5151Z" fill="#404147"/>
<path d="M180.976 124.671L120.003 157.704L59.0293 124.671L98.9696 103.029C112.09 95.9194 127.915 95.9194 141.036 103.029L180.976 124.671Z" fill="#404147"/>
<path d="M221.191 88.0928L196.77 116.111L120 74.5155L145.388 45.3897C146.398 44.2309 148.077 43.9276 149.429 44.6598L220.28 83.0467C222.129 84.0489 222.573 86.507 221.191 88.0928Z" fill="#AFE2FF"/>
<path d="M18.8098 88.0928L43.2307 116.111L120.001 74.5155L94.6128 45.3897C93.6026 44.2309 91.924 43.9276 90.5721 44.6598L19.7215 83.0472C17.8718 84.0489 17.4279 86.507 18.8098 88.0928Z" fill="#AFE2FF"/>
<path d="M16.6738 125.104L43.2308 116.111L120 157.706L89.031 168.192C87.2994 168.779 85.4024 168.617 83.7951 167.746L16.1624 131.103C13.6419 129.737 13.9583 126.023 16.6738 125.104Z" fill="#AFE2FF"/>
<path d="M223.327 125.104L196.77 116.111L120 157.706L150.969 168.192C152.701 168.779 154.598 168.617 156.205 167.746L223.837 131.103C226.358 129.737 226.042 126.023 223.327 125.104Z" fill="#AFE2FF"/>
</svg>
