<svg width="601" height="434" viewBox="0 0 601 434" fill="none" xmlns="http://www.w3.org/2000/svg">
<g clip-path="url(#clip0_367_38541)">
<path d="M496.258 198.782C497.904 196.215 500.331 194.318 502.284 192.03C503.4 190.719 505.269 192.616 504.181 193.927C502.368 196.048 500.08 197.777 498.574 200.121C497.625 201.544 495.337 200.233 496.258 198.782Z" fill="#00CC8F"/>
<path d="M165.496 377.844L125.323 377.23L126.16 340.709C142.926 348.102 155.481 361.913 165.496 377.844Z" fill="#00CC8F"/>
<path d="M178.051 3.87205C179.167 5.40655 180.394 6.82945 181.734 8.14075C182.961 9.34045 181.064 11.2377 179.836 10.038C178.33 8.55925 176.991 6.94105 175.735 5.23915C174.731 3.81625 177.047 2.47705 178.051 3.87205Z" fill="#00CC8F"/>
<path d="M186.895 167.924L172.108 161.2L174.675 175.262L186.895 167.924Z" fill="#00CC8F"/>
<path d="M169.681 348.158H491.933L497.262 71.1386L175.009 63.1592L171.299 251.847L170.099 313.394L169.96 320.592L169.681 348.158Z" fill="#00CC8F"/>
<path d="M479.547 383.898C480.273 383.898 480.858 383.312 480.886 382.587L488.865 33.6693C488.865 33.3066 488.726 32.9718 488.475 32.7207C488.224 32.4696 487.889 32.3301 487.526 32.3301H133.303C132.577 32.3301 131.963 32.916 131.963 33.6414L131.573 82.1874C131.573 82.9128 132.159 83.5266 132.884 83.5266C133.609 83.5266 134.223 82.9407 134.223 82.2153L134.586 34.9806H486.187L478.264 381.22L126.691 375.947L128.42 301.872C128.448 301.147 127.862 300.533 127.109 300.505C126.412 300.477 125.77 301.063 125.742 301.816L123.985 377.23C123.985 377.593 124.124 377.927 124.347 378.178C124.598 378.43 124.933 378.569 125.296 378.597L479.547 383.898Z" fill="#061213"/>
<path d="M364.914 131.012H444.871C447.493 131.012 449.613 128.892 449.613 126.269V114.803C449.613 112.18 447.493 110.06 444.871 110.06L364.914 111.761C362.292 111.761 360.172 113.882 360.172 116.504V126.269C360.144 128.864 362.292 131.012 364.914 131.012Z" fill="white"/>
<path d="M439.122 77.3612C439.122 79.9838 440.154 82.1879 443.865 82.1879C446.487 82.1879 448.607 79.9838 448.607 77.3612C448.607 74.7386 446.487 72.6182 443.865 72.6182C441.242 72.6182 439.122 74.7665 439.122 77.3612Z" fill="#061213"/>
<path d="M443.837 83.5268C447.184 83.5268 449.891 80.7647 449.891 77.3609C449.891 74.0129 447.157 71.3066 443.837 71.3066C440.489 71.3066 437.783 74.0408 437.783 77.3609C437.783 81.3506 439.931 83.5268 443.837 83.5268ZM443.837 73.9571C445.706 73.9571 447.24 75.4916 447.24 77.3609C447.24 79.2581 445.678 80.8484 443.837 80.8484C441.41 80.8484 440.433 79.844 440.433 77.3609C440.433 75.4916 441.968 73.9571 443.837 73.9571Z" fill="#061213"/>
<path d="M425.175 83.5268C428.522 83.5268 431.229 80.7647 431.229 77.3609C431.229 74.0129 428.494 71.3066 425.175 71.3066C421.827 71.3066 419.121 74.0408 419.121 77.3609C419.093 81.3506 421.241 83.5268 425.175 83.5268ZM425.175 73.9571C427.044 73.9571 428.578 75.4916 428.578 77.3609C428.578 79.2581 427.016 80.8484 425.175 80.8484C422.747 80.8484 421.771 79.844 421.771 77.3609C421.771 75.4916 423.278 73.9571 425.175 73.9571Z" fill="#061213"/>
<path d="M439.597 373.045C447.492 373.045 453.881 366.516 453.881 358.481C453.881 350.585 447.464 344.196 439.597 344.196C431.702 344.196 425.313 350.613 425.313 358.481C425.313 368.023 430.251 373.045 439.597 373.045ZM439.597 346.875C446.014 346.875 451.231 352.092 451.231 358.509C451.231 364.954 445.902 370.394 439.597 370.394C431.674 370.394 427.963 366.628 427.963 358.509C427.963 352.092 433.18 346.875 439.597 346.875Z" fill="#061213"/>
<path d="M407.653 83.5268C411.001 83.5268 413.707 80.7647 413.707 77.3609C413.707 74.0129 410.973 71.3066 407.653 71.3066C404.333 71.3066 401.599 74.0408 401.599 77.3609C401.599 81.3506 403.747 83.5268 407.653 83.5268ZM407.653 73.9571C409.522 73.9571 411.057 75.4916 411.057 77.3609C411.057 79.2581 409.494 80.8484 407.653 80.8484C405.226 80.8484 404.25 79.844 404.25 77.3609C404.25 75.4916 405.784 73.9571 407.653 73.9571Z" fill="#061213"/>
<path d="M411.028 155.927H443.837C444.562 155.927 445.176 155.342 445.176 154.588C445.176 153.835 444.59 153.249 443.837 153.249H411C410.275 153.249 409.661 153.835 409.661 154.588C409.661 155.342 410.275 155.927 411.028 155.927Z" fill="#061213"/>
<path d="M422.887 173.672H443.866C444.591 173.672 445.205 173.086 445.205 172.332C445.205 171.579 444.619 170.993 443.866 170.993H422.887C422.161 170.993 421.547 171.579 421.547 172.332C421.547 173.086 422.133 173.672 422.887 173.672Z" fill="#061213"/>
<path d="M439.596 362.694C440.322 362.694 440.936 362.108 440.936 361.355V341.267C440.936 340.542 440.35 339.928 439.596 339.928C438.871 339.928 438.257 340.514 438.257 341.267V361.355C438.257 362.108 438.871 362.694 439.596 362.694Z" fill="#061213"/>
<path d="M298.712 409.287H316.009C316.734 409.287 317.348 408.701 317.348 407.948V380.104C317.348 379.378 316.762 378.765 316.009 378.765C315.255 378.765 314.669 379.351 314.669 380.104V406.609H300.107L301.836 379.937C301.892 379.211 301.334 378.569 300.581 378.514C299.828 378.458 299.214 379.016 299.158 379.769L297.345 407.837C297.317 408.199 297.456 408.562 297.707 408.841C297.986 409.12 298.321 409.287 298.712 409.287Z" fill="#061213"/>
<path d="M299.659 392.966L300.496 379.881L316.008 380.104V407.948H315.952C310.596 402.87 305.211 397.821 299.659 392.966Z" fill="#061213"/>
<path d="M253.739 426.25H360.059C360.561 426.25 361.035 425.943 361.259 425.497C361.482 425.022 361.398 424.492 361.091 424.074C353.168 414.476 324.154 404.767 298.627 406.608C273.324 408.422 253.767 423.237 252.93 423.851C252.484 424.185 252.288 424.799 252.484 425.329C252.651 425.887 253.153 426.25 253.739 426.25ZM356.823 423.599H258.035C264.731 419.303 280.382 410.626 298.795 409.287C321.169 407.641 347.058 415.397 356.823 423.599Z" fill="#061213"/>
<path d="M142.173 211.811C142.899 211.811 143.485 211.225 143.513 210.499L144.796 149.343C144.824 148.617 144.238 148.003 143.485 147.976H143.457C142.731 147.976 142.146 148.561 142.118 149.287L140.834 210.444C140.806 211.169 141.392 211.783 142.146 211.811H142.173Z" fill="#061213"/>
<path d="M222.382 335.854L462.251 337.277L462.697 237.506C462.697 237.506 392.226 176.74 323.569 184.134C323.569 182.655 324.099 144.934 324.127 141.056C324.155 139.354 327.809 139.689 329.093 139.354C329.093 139.354 334.728 136.648 337.127 133.914C337.825 131.933 337.825 127.72 337.853 125.655C332.496 121.387 331.604 121.414 325.243 118.652C323.262 117.787 320.026 79.676 305.519 75.9932C305.017 75.8816 251.815 75.9932 248.579 87.7112C248.857 88.1855 248.327 136.062 247.797 155.341C250.81 175.457 259.905 178.693 271.26 183.352C270.981 185.25 272.013 188.151 271.734 190.048C266.991 189.853 237.893 207.458 224.698 220.822C219.453 226.123 213.594 231.396 209.409 237.646C204.834 241.552 200.342 245.039 195.209 247.857C185.947 252.991 176.685 252.349 170.101 250.731V313.366C222.466 313.366 252.847 277.794 252.847 277.794L256.167 292.497C207.791 313.897 222.382 335.854 222.382 335.854Z" fill="white"/>
<path d="M325.27 182.738C334.923 182.013 377.439 180.562 419.398 206.984C440.099 220.013 464.872 236.39 465.375 240.24C465.43 240.631 465.291 241.133 465.012 241.44C464.761 241.719 464.398 241.859 464.035 241.859C463.701 241.859 463.394 241.747 463.115 241.496C462.864 241.273 462.724 240.966 462.696 240.659C462.111 239.71 457.256 233.991 417.948 209.243C371.302 179.865 324.014 185.528 323.54 185.584C323.205 185.612 322.871 185.528 322.592 185.333C323.484 184.412 324.377 183.575 325.27 182.738Z" fill="#061213"/>
<path d="M255.915 292.525C255.999 292.525 256.055 292.525 256.139 292.497C256.864 292.385 257.366 291.688 257.227 290.963C257.199 290.795 254.493 274.669 246.709 257.762C246.402 257.092 245.621 256.785 244.951 257.12C244.282 257.427 244.003 258.208 244.31 258.878C251.926 275.45 254.716 291.883 254.744 292.051C254.827 292.72 255.274 292.525 255.915 292.525Z" fill="#061213"/>
<path d="M172.109 359.96H186.895C187.621 359.96 188.234 359.374 188.234 358.62C188.234 357.895 187.649 357.281 186.895 357.281H172.109C171.384 357.281 170.77 357.867 170.77 358.62C170.77 359.374 171.384 359.96 172.109 359.96Z" fill="#061213"/>
<path d="M318.825 118.932C327.557 118.485 333.723 119.908 337.126 123.117C339.498 125.377 340 127.999 340 129.813C340 132.519 338.884 135.086 336.875 137.011C335.09 138.713 331.77 140.694 325.856 140.749L324.795 182.767C325.493 182.711 326.441 182.655 327.585 182.572C326.999 183.52 326.386 184.441 325.744 185.362C324.405 185.473 323.652 185.557 323.596 185.557C323.205 185.613 322.815 185.473 322.536 185.222C322.257 184.971 322.089 184.58 322.089 184.19L323.233 139.354C323.233 138.992 323.401 138.657 323.652 138.406C323.903 138.155 324.265 138.043 324.628 138.043C329.231 138.238 332.83 137.206 335.034 135.086C337.043 133.161 337.322 130.957 337.322 129.813C337.322 127.943 336.624 126.325 335.285 125.042C332.467 122.363 326.832 121.164 318.965 121.582C318.295 121.61 317.598 121.052 317.57 120.327C317.514 119.601 318.072 118.96 318.825 118.932Z" fill="#061213"/>
<path d="M271.37 138.211C272.096 138.211 272.709 137.625 272.709 136.872C272.709 136.118 272.124 135.532 271.37 135.532C268.887 135.532 266.823 134.863 265.874 133.747C265.344 133.105 265.149 132.352 265.316 131.403C265.679 129.311 270.338 128.139 272.57 127.888C273.239 127.804 273.77 127.246 273.77 126.576V114.384C273.77 113.659 273.184 113.045 272.43 113.045C271.705 113.045 271.091 113.631 271.091 114.384V125.433C268.608 125.879 263.336 127.246 262.694 130.985C262.415 132.714 262.806 134.249 263.838 135.477C265.344 137.234 267.995 138.211 271.37 138.211Z" fill="#061213"/>
<path d="M288.137 121.973C288.416 121.973 288.695 121.889 288.946 121.694C291.289 119.908 297.008 118.402 298.989 117.983C299.715 117.816 300.161 117.118 300.021 116.393C299.854 115.667 299.157 115.221 298.431 115.36C298.124 115.416 290.62 117.062 287.328 119.573C286.742 120.02 286.63 120.857 287.077 121.443C287.328 121.805 287.718 121.973 288.137 121.973Z" fill="#061213"/>
<path d="M262.527 117.341V119.992C262.527 123.424 257.199 123.424 257.199 119.992V117.341C257.199 113.91 262.527 113.91 262.527 117.341Z" fill="#061213"/>
<path d="M293.578 104.479C295.727 104.954 297.791 105.512 299.8 106.377C301.362 107.046 300.023 109.362 298.461 108.664C296.675 107.883 294.778 107.437 292.881 107.018C291.207 106.683 291.904 104.117 293.578 104.479Z" fill="#061213"/>
<path d="M256.528 104.005C257.895 103.084 259.401 102.415 260.685 101.41C262.024 100.35 263.921 102.22 262.582 103.308C261.103 104.479 259.429 105.289 257.895 106.321C256.444 107.269 255.105 104.982 256.528 104.005Z" fill="#061213"/>
<path d="M294.542 150.038C292.744 149.151 290.046 148.383 288.57 150.245C287.501 151.574 285.331 150.052 286.4 148.723C288.665 145.881 292.423 146.063 295.445 147.536C296.937 148.275 296.057 150.793 294.542 150.038Z" fill="#061213"/>
<path d="M291.791 220.041C312.994 220.041 329.203 205.086 330.403 184.329C330.458 183.603 329.873 182.962 329.147 182.934C328.422 182.906 327.78 183.464 327.752 184.189C326.608 203.998 311.627 217.697 291.261 217.39C280.883 217.251 274.662 213.066 271.258 209.55C267.408 205.561 265.149 200.26 265.26 195.377C265.288 194.652 264.702 194.038 263.949 194.01H263.921C263.196 194.01 262.61 194.596 262.582 195.321C262.47 200.985 264.925 206.844 269.333 211.392C273.072 215.27 279.907 219.901 291.206 220.041C291.429 220.041 291.596 220.041 291.791 220.041Z" fill="#061213"/>
<path d="M246.178 107.492C246.261 103.363 246.345 99.0387 246.401 94.5747C246.736 73.566 260.21 62.9082 286.463 62.9082C316.453 62.9082 330.402 74.3472 330.402 98.8713V120.187C330.402 120.912 329.816 121.526 329.063 121.526C328.449 121.526 327.947 121.108 327.78 120.55C323.902 120.243 322.228 121.163 317.904 121.136C316.258 119.992 316.202 93.654 309.2 87.6555C296.813 77.0256 259.764 80.5689 250 86.4837C249.414 88.9668 249.107 91.6731 249.051 94.6026C248.967 99.0666 248.884 103.391 248.828 107.52C248.075 146.58 247.6 170.184 260.489 177.605C271.537 183.994 291.512 182.767 291.708 182.767C292.182 182.739 292.6 182.934 292.851 183.297C293.13 183.659 293.186 184.134 293.019 184.552C289.615 193.592 273.378 197.107 272.681 197.275C272.597 197.302 272.486 197.303 272.402 197.303C272.095 197.303 271.816 197.191 271.565 196.996C271.258 196.744 271.063 196.354 271.063 195.963V184.189C271.063 184.162 271.063 184.106 271.063 184.078C266.822 183.241 262.61 181.93 259.122 179.921C244.922 171.718 245.397 147.557 246.178 107.492Z" fill="#061213"/>
<path d="M355.596 286.332C356.963 283.012 363.91 278.101 370.661 278.101C376.017 278.101 379.477 279.44 381.681 281.059V281.031C381.792 280.835 384.247 276.316 393.872 273.442C396.244 272.744 398.699 272.521 401.182 272.633L392.589 264.709C392.059 264.207 392.003 263.37 392.505 262.84C393.007 262.31 393.844 262.254 394.374 262.756L405.701 273.219C417.083 275.506 427.573 283.374 428.159 283.821C428.745 284.267 428.857 285.104 428.41 285.69C428.159 286.025 427.741 286.22 427.35 286.22C427.071 286.22 426.792 286.136 426.541 285.941C426.346 285.802 408.017 272.019 394.57 275.981C386.144 278.464 383.996 282.23 383.968 282.23C383.857 282.454 383.689 282.621 383.466 282.76C385.084 284.63 385.447 286.388 385.475 286.555C385.614 287.28 385.14 287.95 384.415 288.089C383.689 288.229 382.992 287.755 382.852 287.057C382.797 286.806 381.402 280.724 370.577 280.724C364.886 280.724 358.916 285.048 357.967 287.308C357.744 287.81 357.27 288.117 356.74 288.117C356.572 288.117 356.405 288.089 356.237 288.006C355.652 287.782 355.317 287.001 355.596 286.332Z" fill="#061213"/>
<path d="M366.253 337.277C366.783 337.277 367.313 336.943 367.508 336.413C375.124 316.073 365.722 297.353 362.654 292.079C360.952 289.178 357.13 284.212 353.503 284.128C352.471 284.128 351.132 284.435 350.044 286.081C349.011 287.671 350.267 290.071 352.527 294.451C354.563 298.357 357.074 303.239 358.385 308.429C361.119 319.282 359.362 331.335 356.907 335.213C356.516 335.827 356.683 336.664 357.325 337.054C357.939 337.445 358.776 337.277 359.166 336.636C362.235 331.781 363.742 318.752 360.98 307.787C359.585 302.291 356.879 297.046 354.898 293.223C353.726 290.963 352.248 288.118 352.359 287.392C352.722 286.862 353.14 286.778 353.447 286.806C355.344 286.862 358.497 290.294 360.338 293.447C363.267 298.441 372.223 316.269 364.997 335.492C364.746 336.189 365.081 336.943 365.778 337.194C365.946 337.25 366.113 337.277 366.253 337.277Z" fill="#061213"/>
<path d="M221.768 323.216C222.493 323.216 223.107 322.63 223.107 321.877C223.107 318.361 223.107 311.777 247.825 297.883C261.802 290.043 290.118 290.099 317.459 290.127C328.757 290.154 340.447 290.154 351.216 289.652C351.941 289.624 352.527 288.983 352.471 288.257C352.443 287.532 351.773 286.946 351.076 287.002C340.363 287.504 328.702 287.504 317.431 287.476C288.445 287.448 261.076 287.392 246.486 295.595C222.409 309.126 220.401 316.269 220.401 321.905C220.457 322.63 221.042 323.216 221.768 323.216Z" fill="#061213"/>
<path d="M221.377 334.096C221.628 334.096 221.879 334.012 222.103 333.873C222.716 333.454 222.884 332.645 222.465 332.032C221.489 330.581 221.294 328.795 221.879 326.703C222.856 323.243 227.599 313.98 250.922 303.016C251.591 302.709 251.87 301.9 251.563 301.23C251.256 300.56 250.447 300.281 249.778 300.588C232.397 308.763 221.573 317.775 219.313 325.949C218.532 328.767 218.866 331.362 220.261 333.454C220.54 333.873 220.959 334.096 221.377 334.096Z" fill="#061213"/>
<path d="M222.298 337.277C222.465 337.277 222.605 337.249 222.772 337.193C223.47 336.942 223.804 336.161 223.553 335.492C222.131 331.669 226.539 324.08 255.692 309.6C256.362 309.266 256.613 308.484 256.306 307.815C255.971 307.145 255.19 306.894 254.52 307.201C228.994 319.895 218.336 329.158 221.07 336.384C221.238 336.942 221.74 337.277 222.298 337.277Z" fill="#061213"/>
<path d="M231.142 337.277C231.253 337.277 231.393 337.249 231.532 337.221C232.23 337.026 232.648 336.273 232.425 335.575C230.974 330.609 241.855 327.038 250.615 324.136C253.851 323.076 256.892 322.071 259.403 321.011C260.072 320.732 260.407 319.951 260.1 319.254C259.821 318.584 259.04 318.277 258.343 318.556C255.943 319.56 252.958 320.565 249.778 321.597C239.428 325.001 227.682 328.879 229.859 336.328C230.054 336.914 230.584 337.277 231.142 337.277Z" fill="#061213"/>
<path d="M89.2785 72.0594L238.869 108.72C238.869 108.72 242.914 117.983 240.905 122.14C238.925 126.297 238.478 129.673 238.478 129.673L79.9884 121.303C79.9884 121.303 63.9191 114.412 64.4212 94.5747C64.9234 74.7378 72.5954 70.2738 75.1341 68.9904C77.7007 67.7349 83.5873 66.1725 89.2785 72.0594Z" fill="white"/>
<path d="M74.1309 74.1799C76.2791 72.9802 78.7062 72.5059 81.3008 72.5059C89.6144 72.5059 96.3379 82.3825 96.3379 94.6027C96.3379 98.983 95.4452 103.084 93.9387 106.516C87.7452 95.4955 81.496 84.475 74.1309 74.1799Z" fill="#061213"/>
<path d="M89.9219 112.71C87.4947 115.221 84.5096 116.699 81.3292 116.699C73.0156 116.699 66.2921 106.823 66.2921 94.6026C66.2921 87.3765 67.4917 82.3546 69.5004 78.9229C77.0887 89.6365 83.4495 101.215 89.9219 112.71Z" fill="#061213"/>
<path d="M81.3008 122.726C92.0974 122.726 100.857 110.115 100.857 94.6027C100.857 79.0903 92.0695 66.4795 81.3008 66.4795C68.3281 66.4795 61.7441 75.9376 61.7441 94.6027C61.7441 110.115 70.5321 122.726 81.3008 122.726ZM81.3008 69.1579C90.6188 69.1579 98.2071 80.569 98.2071 94.6027C98.2071 108.636 90.6188 120.047 81.3008 120.047C71.9828 120.047 64.3944 108.636 64.3944 94.6027C64.3944 77.4721 69.9462 69.1579 81.3008 69.1579Z" fill="#061213"/>
<path d="M238.534 129.701C238.981 129.701 239.399 129.478 239.65 129.087C244.226 122.028 244.198 115.332 239.595 109.222C239.427 108.971 239.148 108.804 238.869 108.748L89.9486 69.5207C89.2232 69.3254 88.4978 69.7718 88.3304 70.4693C88.1352 71.1668 88.5536 71.9201 89.279 72.0875L237.725 111.203C241.241 116.114 241.268 121.303 237.809 127.023L161.368 123.647C160.671 123.619 160.001 124.177 159.973 124.93C159.945 125.655 160.503 126.297 161.256 126.325L238.479 129.673C238.479 129.701 238.507 129.701 238.534 129.701Z" fill="#061213"/>
<path d="M238.897 124.986L242.106 119.267L239.149 113.547C238.897 113.073 238.953 112.543 239.288 112.124C239.595 111.706 240.125 111.538 240.627 111.65L253.042 114.496C253.488 114.607 253.851 114.914 253.99 115.333C254.102 115.612 256.39 122.057 253.879 126.297C253.628 126.716 253.209 126.939 252.735 126.939H240.069C239.595 126.939 239.149 126.688 238.925 126.27C238.674 125.907 238.674 125.377 238.897 124.986Z" fill="#061213"/>
<path d="M131.824 124.957C132.521 124.957 133.135 124.399 133.163 123.674C133.191 122.949 132.633 122.307 131.88 122.279L81.384 120.047C80.7144 120.019 80.017 120.577 79.9891 121.33C79.9612 122.056 80.5191 122.697 81.2724 122.725L131.768 124.957C131.768 124.957 131.796 124.957 131.824 124.957Z" fill="#061213"/>
<path d="M172.276 250.369C162.903 246.295 155.761 245.179 153.222 236.753C150.655 228.328 145.717 216.637 140.863 210.444C140.863 210.444 141.56 202.325 136.734 201.46C136.734 201.46 131.489 190.384 135.59 172.025C139.663 153.667 144.573 148.785 153.138 139.801C161.703 130.817 163.349 121.861 160.894 116.142C158.439 110.422 150.404 95.8584 146.275 96.1932C142.146 96.528 138.464 100.629 141.309 105.121C144.155 109.613 148.619 111.482 145.383 115.444C142.146 119.406 136.148 119.824 131.685 124.288C121.027 124.679 110.789 123.898 110.789 123.898C110.789 123.898 89.5303 155.704 85.8756 179.363C82.1931 203.022 82.0257 212.006 82.0257 212.006C82.0257 212.006 77.2551 215.103 78.12 218.535C78.9848 221.966 81.384 222.608 81.384 222.608C81.384 222.608 84.6481 256.869 93.2129 267.471C101.778 278.073 119.884 303.602 138.966 308.373C158.048 313.144 172.751 312.753 174.369 312.753C175.987 312.753 172.276 250.369 172.276 250.369Z" fill="white"/>
<path d="M180.255 253.131C190.186 253.131 201.402 247.467 218.364 229.779C241.129 206.036 254.352 196.689 272.793 191.333C273.491 191.137 273.909 190.384 273.686 189.686C273.491 188.989 272.765 188.57 272.04 188.794C253.069 194.318 239.566 203.832 216.411 227.937C192.418 252.964 181.008 252.043 171.383 248.946C157.071 244.343 153.249 236.837 153.193 236.754C152.859 236.084 152.078 235.805 151.408 236.14C150.738 236.447 150.459 237.256 150.794 237.898C150.962 238.232 155.035 246.463 170.546 251.457C173.754 252.489 176.935 253.131 180.255 253.131Z" fill="#061213"/>
<path d="M81.3002 214.518C81.3281 214.518 81.3281 214.518 81.3002 214.518C82.0535 214.49 82.6393 213.904 82.6393 213.151C82.0255 183.186 90.9251 155.509 111.542 123.396C111.932 122.782 111.765 121.945 111.151 121.555C110.538 121.164 109.701 121.332 109.31 121.945C88.4142 154.533 79.3473 182.684 79.989 213.178C79.989 213.932 80.5749 214.518 81.3002 214.518Z" fill="#061213"/>
<path d="M171.551 315.655C200.202 315.655 227.738 303.323 253.627 278.882C254.157 278.38 254.185 277.543 253.683 277.013C253.181 276.483 252.344 276.455 251.814 276.957C222.186 304.913 190.438 316.715 157.462 312C114.89 304.02 82.695 265.351 82.6392 222.05C82.6392 221.325 82.0255 220.739 81.3001 220.711C80.5748 220.711 79.961 221.297 79.961 222.05C80.0447 266.606 113.16 306.42 157.016 314.622C161.898 315.32 166.752 315.655 171.551 315.655Z" fill="#061213"/>
<path d="M149.985 253.159C150.626 253.159 151.212 252.685 151.296 252.015L151.603 250.146C153.193 240.409 156.15 222.274 140.918 207.124C140.388 206.594 139.551 206.594 139.049 207.124C138.519 207.654 138.519 208.491 139.049 208.993C153.305 223.167 150.487 240.437 148.98 249.7L148.673 251.569C148.562 252.294 149.064 252.964 149.789 253.075C149.845 253.159 149.901 253.159 149.985 253.159Z" fill="#061213"/>
<path d="M232.368 295.901C232.563 295.734 232.758 295.566 233.009 295.343C243.834 285.913 247.21 265.323 247.21 265.323C247.21 265.323 247.74 264.932 250.753 271.461C253.766 277.989 250.753 280.333 250.753 280.333C250.753 280.333 237.445 291.716 232.451 295.957L232.368 295.901Z" fill="#061213"/>
<path d="M135.004 201.934C135.088 201.934 135.199 201.934 135.283 201.906C136.008 201.767 136.455 201.042 136.315 200.316C134.167 190.133 137.124 157.824 144.433 150.208L144.74 149.901C154.198 140.052 165.999 127.776 162.818 116.951C160.28 108.302 152.217 98.2021 146.247 96.1933C143.708 95.3284 142.006 95.9981 141.03 96.7235C137.626 99.2345 138.965 104.842 145.047 113.463C145.466 114.049 145.577 114.775 145.354 115.444C145.131 116.114 144.629 116.644 143.931 116.867C136.064 119.546 121.92 125.6 115.531 136.174C115.14 136.816 115.336 137.625 115.977 138.015C116.591 138.406 117.428 138.211 117.819 137.569C123.789 127.72 137.292 121.973 144.824 119.406C146.303 118.904 147.446 117.76 147.921 116.281C148.395 114.803 148.144 113.212 147.251 111.957C142.536 105.289 140.779 100.295 142.648 98.9275C143.345 98.4253 144.266 98.3696 145.438 98.7602C150.627 100.518 157.992 109.92 160.308 117.76C163.042 127.079 151.38 139.243 142.871 148.115L142.564 148.422C134.027 157.322 131.656 190.97 133.776 200.93C133.832 201.516 134.39 201.934 135.004 201.934Z" fill="#061213"/>
<path d="M101.107 227.63C108.947 227.63 117.428 226.263 124.626 223.473C134.585 219.595 140.36 213.68 141.309 206.342C141.755 202.994 140.025 199.674 137.487 198.921C136.733 198.697 134.083 198.279 132.242 202.185C129.619 207.737 124.849 211.671 118.069 213.875C103.646 218.562 85.7075 214.07 81.9692 212.034C81.5507 211.783 81.0207 211.81 80.6022 212.089C80.2395 212.341 76.9754 214.517 76.7801 217.614C76.6964 218.73 77.0312 220.376 78.9562 221.994C83.3641 225.705 91.8173 227.63 101.107 227.63ZM136.482 201.432C136.566 201.432 136.65 201.432 136.733 201.46C137.738 201.739 138.965 203.664 138.658 205.979C137.626 213.931 129.926 218.534 123.649 220.962C108.975 226.681 88.0789 226.179 80.6301 219.929C79.7652 219.204 79.3746 218.479 79.4025 217.753C79.4862 216.581 80.6022 215.41 81.4391 214.74C87.3535 217.418 105.18 220.822 118.851 216.414C126.383 213.987 131.684 209.578 134.613 203.329C134.92 202.715 135.617 201.432 136.482 201.432Z" fill="#061213"/>
<path d="M139.971 337.277H462.251C462.977 337.277 463.563 336.691 463.59 335.966L468.919 58.9744C468.947 58.249 468.361 57.6352 467.608 57.6073L145.355 49.6279C144.993 49.6558 144.658 49.7674 144.407 49.9906C144.156 50.2417 144.016 50.5765 143.988 50.9392L143.347 85.2841C143.347 86.0095 143.905 86.6233 144.658 86.6512C145.355 86.6791 145.997 86.0653 146.025 85.3399L146.639 52.3342L466.213 60.2299L460.94 334.599H141.338L141.589 308.4C141.589 307.675 141.003 307.061 140.278 307.061C139.553 307.061 138.939 307.647 138.939 308.373L138.688 335.91C138.688 336.272 138.827 336.607 139.078 336.858C139.274 337.137 139.608 337.277 139.971 337.277Z" fill="#061213"/>
</g>
<defs>
<clipPath id="clip0_367_38541">
<rect width="600" height="434" fill="white" transform="translate(0.923828)"/>
</clipPath>
</defs>
</svg>
