<svg xmlns="http://www.w3.org/2000/svg" width="50" height="50"><path d="M27.734 3.32q.055.024.114.047c.691.301 1.336.688 1.988 1.078q.264.154.527.313c.047.027.09.05.133.078q.599.352 1.203.7.606.345 1.211.702.37.218.746.434a67 67 0 0 1 1.754 1.035q.603.37 1.223.707c.262.14.512.285.765.438.297.183.598.355.903.53.48.274.957.56 1.433.845.348.21.703.418 1.055.62 2.016 1.173 3.773 2.583 4.426 4.926.164.668.25 1.317.25 2.004v.196c0 .175 0 .355.004.53v5.071c0 .094 0 .192.004.285v2.411c0 .777.004 1.554.004 2.332v2.988c.003.746 0 1.469-.164 2.2q-.016.07-.032.14-.032.15-.074.297l-.031.109c-.574 1.926-1.922 3.355-3.63 4.344-.276.16-.55.328-.827.492q-.677.408-1.364.805-.54.313-1.074.64c-.363.215-.722.43-1.093.637-.524.293-1.04.601-1.555.914l-1.211.715q-.944.55-1.887 1.113-.492.293-.984.582-.421.251-.836.496c-1.973 1.176-1.973 1.176-2.785 1.559a7.057 7.057 0 0 1-1.129.426c-.035.007-.07.02-.106.027-1.843.496-3.773.094-5.41-.832q-.461-.27-.918-.547a63 63 0 0 0-1.156-.68c-.047-.027-.09-.05-.137-.078q-.48-.28-.957-.566c-.066-.035-.066-.035-.129-.074-.894-.528-.894-.528-1.312-.778-.336-.203-.668-.398-1.004-.597q-.382-.222-.758-.45c-.582-.343-1.16-.687-1.746-1.023q-.488-.286-.977-.578-.564-.334-1.132-.66a62 62 0 0 1-.68-.403l-.488-.289-.559-.328a13 13 0 0 0-.309-.183c-1.207-.711-1.207-.711-1.75-1.13q-.035-.027-.078-.062c-.324-.25-.324-.25-.457-.375v-.101c-.027-.008-.054-.02-.082-.028-.16-.097-.27-.23-.386-.37-.028-.032-.051-.06-.079-.09-1.101-1.333-1.656-2.95-1.66-4.669v-.68q-.002-.27-.004-.538.001-.528-.004-1.055v-.985q-.004-.123-.003-.246-.001-1.164-.008-2.336c0-.664-.004-1.328-.004-1.996a460 460 0 0 1-.008-2.32q.001-.122-.004-.25v-.976q-.005-.527-.004-1.047.001-.269-.004-.532c-.008-2.082-.008-2.082.137-2.894q.017-.074.027-.149c.246-1.332.903-2.484 1.84-3.449.051-.05.051-.05.098-.101.195-.211.414-.383.644-.555l.086-.063c.492-.355 1.024-.652 1.543-.96.055-.036.114-.067.168-.102q.72-.423 1.442-.848.532-.31 1.066-.625.544-.324 1.094-.64c.418-.246.84-.493 1.258-.743q.76-.45 1.527-.894c.348-.203.691-.406 1.039-.61q.047-.027.094-.054.492-.289.984-.582c.418-.254.84-.496 1.262-.738.152-.09.305-.176.457-.266l.113-.066c.254-.145.508-.297.762-.446q.72-.43 1.457-.836.123-.066.246-.133c.656-.347 1.363-.535 2.094-.648.05-.008.097-.02.148-.027 1.262-.145 2.496.015 3.66.515m-6.308 2.75q-.45.269-.91.532-.428.24-.848.492c-.387.238-.781.465-1.176.691q-.51.288-1.008.586l-.62.363c-.403.227-.798.465-1.192.704q-.728.433-1.461.855a87 87 0 0 0-.809.473c-.328.203-.664.394-1 .586-.37.214-.742.43-1.105.652q-.344.204-.695.406c-.38.219-.754.438-1.133.66-.051.032-.102.059-.153.09-.328.195-.625.41-.918.66-.066.055-.066.055-.136.11-.805.699-1.309 1.648-1.575 2.672q-.012.064-.03.128c-.11.454-.122.903-.122 1.364v5.875q.001 1.067-.004 2.14v5.024c-.004 1.836.27 3.41 1.582 4.785.485.473 1.07.8 1.653 1.145.062.035.125.074.191.109q.602.356 1.211.71 1.091.636 2.176 1.282.042.029.086.05.085.055.172.102.643.387 1.293.762c.101.063.203.121.304.184.317.183.63.37.95.55.597.34 1.19.696 1.785 1.051q.48.292.972.567c.465.27.93.547 1.387.824.41.254.824.5 1.246.73q.221.124.438.254c1.304.766 2.687 1.172 4.199.805a7.5 7.5 0 0 0 1.855-.797l.164-.094c.446-.261.89-.527 1.332-.789q.691-.411 1.395-.804.48-.274.953-.567c.258-.16.52-.308.785-.46a37 37 0 0 0 1.078-.634c.325-.195.649-.382.973-.574q.68-.396 1.36-.804.709-.428 1.429-.836c.3-.176.598-.348.895-.528q.42-.256.847-.5l.602-.351.136-.082c.895-.524 1.715-1.04 2.356-1.871q.042-.06.09-.118c.883-1.191 1.004-2.539 1-3.976q-.001-.27.004-.547v-1.07a32 32 0 0 1 0-.871v-.379q.001-1.184-.004-2.368V24q.005-1.176.004-2.36v-.374c-.004-.29 0-.578 0-.871q.001-.53-.004-1.06v-.538c.008-1.344.008-1.344-.297-2.649l-.035-.105a5.4 5.4 0 0 0-2.274-2.762q-.047-.029-.101-.062c-.582-.36-1.176-.7-1.77-1.047-.336-.2-.676-.399-1.011-.602q-.946-.567-1.903-1.12c-.078-.048-.078-.048-.16-.095l-1.012-.59q-1.22-.71-2.433-1.425c-.125-.07-.25-.145-.375-.215-.418-.25-.84-.496-1.258-.746-.102-.063-.203-.121-.309-.184l-.875-.52c-2.937-1.75-5.117-2.468-8.187-.605m0 0" style="stroke:none;fill-rule:nonzero;fill:#baa474;fill-opacity:1"/><path d="M23.832 7.316q.352-.01.703-.015c.094-.004.192-.004.285-.008.68-.023 1.11.07 1.692.422q.315.168.636.344v2.586c-.293-.047-.293-.047-.734-.196.02 2.48.035 4.965.05 7.52l.048-7.324c.265.039.406.062.633.168q.081.033.164.074c.058.027.113.05.171.078.118.055.239.105.356.16.059.027.113.05.172.078q.387.174.773.344.288.129.563.27v6.3c-.13.063-.239.063-.383.074-1.813.149-3.45.735-5.133 1.383-1.488.57-2.96 1.102-4.512 1.469q-.064.013-.132.031-.184.04-.372.086c-.035.008-.074.016-.109.027-.2.043-.344.051-.539.004l-.023-2.332q-.002-.087-.004-.175a478 478 0 0 1-.024-5.29v-1.918l.38-.214c.034-.02.073-.04.109-.063l.105-.058.094-.055.094-.05.101-.056c.094-.043.094-.043.242-.043q-.004-.04-.008-.085-.01-.194-.015-.387c-.008-.067-.008-.067-.012-.137-.008-.32-.008-.32.102-.441.105-.067.21-.117.324-.168q.14-.082.281-.156c.102-.055.203-.114.305-.168l.152-.082q.41-.223.824-.426l.047-1.317c.164-.082.23-.113.403-.129l.12-.011c.063-.004.063-.004.13-.012.07-.004.07-.004.14-.012q.68-.06 1.36-.078zm-1.957 1.426v1.074h.684V8.742zm1.27 0v1.074h.73V8.742zm1.27 0v1.074h.73V8.742zm-2.54 1.707v1.125h.684v-1.172c-.41-.015-.41-.015-.684.047m1.27-.047v1.172h.73v-1.172zm1.27 0v1.172h.78a135 135 0 0 0-.05-1.172zm-4.005.586v9.032h.047v-9.032zm-1.27.73c-.05.204-.054.395-.05.602v.328c.234.036.406.051.637 0q.002-.203.003-.406v-.328a1 1 0 0 0-.054-.293c-.192 0-.348.05-.535.098m2.735.489v1.074c.156.012.156.012.313.028q.086.008.18.015.07.001.14.008c.062-.05.062-.05.055-.156v-.59c-.004-.125-.004-.254-.004-.379zm1.27 0v1.074h.73v-1.074zm1.27 0v1.074h.73v-1.074zm3.222.54v.976h.535v-.93c-.18-.07-.18-.07-.535-.047m-8.547.534v.93h.293q.076.002.16.004c.129.008.129.008.184-.055q.006-.098.007-.195v-.598c0-.086 0-.086-.058-.133-.203-.015-.375.016-.586.047m4.055.586v1.172h.73v-1.121q-.356-.029-.73-.05m-1.067.02c-.039.008-.074.011-.117.015a1 1 0 0 0-.086.016.9.9 0 0 0-.055.36v.624c-.004.09-.004.09.055.137a9 9 0 0 0 .492.043q.07.004.14.008c.063-.05.063-.05.055-.16v-.617q-.004-.2-.003-.395a1.3 1.3 0 0 0-.48-.031m2.336.031v1.121h.73v-1.121q-.135-.016-.28-.031l-.16-.012c-.145-.016-.145-.016-.29.043m3.223.437v.93h.535v-.93zm-8.547.442v.926h.637v-.926zm2.785.828v1.125h.684v-1.125zm2.54.05q-.006.114-.005.227v.434q.005.181.004.363c.371.078.371.078.73 0a3.2 3.2 0 0 0 0-1.074c-.109 0-.222-.004-.335-.004h-.192c-.148-.016-.148-.016-.203.055m-1.27 0v1.075h.34q.093.002.187.004c.148.012.148.012.203-.055.008-.078.008-.16.008-.238v-.148q-.005-.076-.004-.153v-.156c0-.125 0-.254-.004-.379a4.6 4.6 0 0 0-.73.05m4.492.243v.93h.238c.066 0 .066 0 .133.004.117.003.117.003.215-.055a7 7 0 0 0-.051-.926q-.105-.005-.211-.004c-.059 0-.059 0-.121-.004-.11 0-.11 0-.203.055m-8.547.39v.93h.637v-.93zm2.785 1.028v1.121h.684v-1.121zm1.27 0v1.074h.73v-1.074zm1.27 0v1.074c.37.016.37.016.73-.05.082-.16.058-.337.058-.512v-.118c.004-.203.004-.203-.058-.394zm-5.325.535q-.005.104-.004.207v.129q.005.063.004.133v.461h.637v-.977q-.142-.005-.29-.004c-.082 0-.082 0-.164-.004-.128-.007-.128-.007-.183.055m0 0" style="stroke:none;fill-rule:nonzero;fill:#b9a373;fill-opacity:1"/><path d="M33.766 19.824c.3.258.578.551.804.88v.097a2.7 2.7 0 0 1-.586-.149c-2.968-1.066-6.183.106-8.984 1.121-1.734.63-3.512 1.25-5.371 1.32a1 1 0 0 1-.129.009c-1.633.039-3.172-.442-4.363-1.57l-.164-.134a1.6 1.6 0 0 1-.325-.351 2 2 0 0 1 .051-.149c.184.04.348.114.524.188.879.36 1.793.465 2.738.46q.051 0 .11-.003c2.195-.012 4.175-.832 6.19-1.621 2.977-1.164 6.696-2.356 9.505-.098m0 0" style="stroke:none;fill-rule:nonzero;fill:#b8a373;fill-opacity:1"/><path d="M22.441 24.89h2.176c.742.005 1.531.051 2.09.598.328.41.461.82.457 1.344-.07.594-.41.973-.848 1.34q.053.04.106.074c.39.34.55.703.59 1.215l.023.527c.012.348.047.676.113 1.016-.156.055-.273.055-.437.055h-.5349999999999999q-.223-.005-.446-.004c-.09-.2-.113-.367-.12-.586l-.012-.2-.012-.312q-.011-.152-.016-.305a3 3 0 0 1-.008-.18 1.4 1.4 0 0 0-.171-.519c-.215-.152-.426-.168-.684-.168-.055-.004-.055-.004-.113-.004q-.172-.004-.344-.008-.116 0-.238-.003l-.575-.012q-.001.04.004.086l.024.847q.001.164.008.32l.011.458q.005.07.004.14c.004.067.004.067.004.137q.002.053.004.117c-.012.094-.012.094-.11.192-.12.011-.12.011-.269.011h-.8280000000000001c-.121-.011-.121-.011-.219-.109-.011-.105-.011-.105-.011-.238v-5.613999999999999c.027-.238.183-.214.382-.214m.997 1.184v1.563q.345.007.69.008.118.002.235.003.172-.001.336.004h.106c.297 0 .515-.066.746-.254.16-.203.203-.378.195-.636a.9.9 0 0 0-.277-.559c-.239-.148-.485-.137-.758-.133h-.695q-.29.005-.578.004M32.031 25.242c.461.34.688.863.782 1.418l-.047.246h-.633c-.063 0-.121 0-.184.004h-.33199999999999996c-.125-.004-.125-.004-.172-.055l-.035-.203a.87.87 0 0 0-.308-.527c-.375-.21-.844-.21-1.262-.117-.102.035-.2.07-.3.117l-.145.047c-.079.18-.079.394-.051.586.23.355.758.426 1.144.515q.158.03.32.067c1.547.348 1.547.348 1.985 1.027.25.477.273.965.117 1.485-.105.27-.207.476-.441.664q-.037.04-.078.082c-.266.257-.551.386-.899.504-.047.02-.047.02-.097.035-.825.25-1.805.11-2.586-.23a1.8 1.8 0 0 1-.391-.29c-.031-.031-.063-.058-.094-.09-.355-.37-.52-.863-.543-1.379.102-.093.102-.093.227-.105h.33199999999999996c.062.004.12.004.183.004h.18q.223.004.445.008.017.045.028.097l.039.133.035.13c.094.26.258.417.484.558.422.152.95.152 1.368.007a.9.9 0 0 0 .39-.34c.04-.242.043-.43-.097-.632-.262-.184-.524-.266-.832-.332q-.047-.007-.098-.02-.199-.042-.402-.086c-.727-.152-1.465-.316-1.918-.965-.274-.437-.286-.98-.188-1.48.152-.441.535-.86.95-1.078.968-.41 2.234-.41 3.124.195m0 0" style="stroke:none;fill-rule:nonzero;fill:#b9a373;fill-opacity:1"/><path d="M17.96 24.89h.47q.15.006.3.005c.493 0 .493 0 .606.054.05.13.098.254.14.383q.02.058.04.121.047.131.09.262l.246.715c.027.074.027.074.05.152.239.68.489 1.352.739 2.027.187.5.367 1.004.53 1.512.079.242.169.469.274.7.04.085.04.085.04.183-.286.062-.57.062-.864.066-.078 0-.078 0-.156.004h-.149q-.064.005-.132.004c-.118-.023-.118-.023-.2-.11a1.4 1.4 0 0 1-.14-.327l-.04-.121-.038-.13q-.02-.058-.04-.124c-.097-.313-.097-.313-.097-.48h-2.2q-.045.238-.097.487c-.039.133-.078.262-.125.395q-.013.045-.031.098c-.078.234-.078.234-.137.289-.094.004-.195.004-.293.004h-.559q-.229-.005-.464-.004c-.067-.18-.032-.285.035-.465.02-.05.039-.106.058-.16a3 3 0 0 0 .067-.176l.105-.281.07-.196q.17-.469.329-.937.064-.176.12-.352l.032-.093c.152-.442.309-.887.461-1.329l.105-.293q.117-.344.239-.687.088-.252.172-.504.041-.115.078-.23l.039-.102c.117-.34.117-.34.328-.36m.544 1.575a53 53 0 0 1-.328.973l-.117.359q-.02.051-.04.11c-.081.25-.14.491-.199.753h1.418a110 110 0 0 0-.683-2.195zm0 0" style="stroke:none;fill-rule:nonzero;fill:#b8a373;fill-opacity:1"/><path d="M19.969 32.813q.057.04.113.082c.461.37.746.894.816 1.48l-.046.195c-.422.016-.84.032-1.274.047-.195-.437-.195-.437-.254-.597-.144-.227-.37-.344-.62-.426-.446-.04-.86-.047-1.224.242-.406.43-.464 1.004-.457 1.566q0 .076-.003.153c.003.523.132.992.46 1.406.356.293.786.277 1.223.246a.9.9 0 0 0 .602-.398c.14-.223.187-.414.273-.676h1.274c.09.363-.102.8-.282 1.125-.383.578-.93.992-1.61 1.152-.788.133-1.62.043-2.284-.422-.613-.488-.926-1.14-1.051-1.902-.02-.23-.02-.457-.02-.688v-.171c.004-.848.243-1.547.836-2.164.88-.82 2.536-.985 3.528-.25m0 0" style="stroke:none;fill-rule:nonzero;fill:#b9a474;fill-opacity:1"/><path d="M28.516 32.52c.214-.004.433-.004.648-.008h.368q.081-.005.163-.004c.14.012.14.012.285.11q.088.163.168.327c.168.348.348.688.532 1.028q.036.07.074.14.04.063.074.133.03.06.067.117c.062.11.132.207.207.305l.195-.36q.125-.234.25-.468l.422-.793.054-.102c.043-.086.09-.172.133-.261.07-.114.07-.114.168-.164q.154-.005.309-.004h.5780000000000001q.24.005.48.004c.051.144.051.144.004.25q-.034.059-.074.117-.035.069-.078.136l-.094.149-.187.32a1 1 0 0 0-.051.082q-.285.494-.559.989c-.043.085-.043.085-.09.171a5 5 0 0 0-.136.25c-.09.16-.18.317-.281.47-.375.585-.426 1.07-.41 1.757v.418q.004.129.003.258c.004.101 0 .199 0 .297-.05.05-.05.05-.175.054h-.348q-.094-.005-.188-.004h-.656c.004-.093.004-.093.004-.187.07-1.57.07-1.57-.555-2.969-.152-.215-.273-.445-.398-.676-.05-.093-.106-.187-.156-.277l-.082-.14q-.13-.235-.266-.462l-.09-.152q-.083-.151-.172-.297c-.027-.043-.05-.09-.078-.133l-.07-.117c-.047-.125-.04-.18.008-.304M24.016 32.512h3.8230000000000004c.282.004.282.004.337.058q.005.117.004.235v.734c-.004.106-.004.106-.055.152q-.168.005-.336.004h-.641q-.27-.005-.535-.004v2.5709999999999997q.005.392.004.785v.844c0 .289 0 .289-.055.343q-.135.005-.269.004h-.8360000000000001c-.113-.004-.113-.004-.164-.054q-.008-.21-.004-.418v-2.481q.005-.796.004-1.594h-.145c-.171 0-.347.004-.52.004h-.655q-.118.001-.243-.004c-.082-.082-.054-.175-.054-.285v-.734c.012-.215.156-.16.34-.16m0 0" style="stroke:none;fill-rule:nonzero;fill:#baa474;fill-opacity:1"/><path d="M34.18 20.898v.098h-.145c-2.3-.023-4.367.328-6.55 1.05-1.919.634-3.958 1.27-6 1.196v-.097c.316-.114.632-.196.96-.274 1.266-.297 2.457-.746 3.66-1.226 1.012-.407 2.02-.778 3.094-.989l.145-.031c1.324-.254 3.636-.523 4.836.273m0 0" style="stroke:none;fill-rule:nonzero;fill:#b8a374;fill-opacity:1"/><path d="M22.047 32.512h.836c.117.008.117.008.164.058.004.07.008.145.008.215v5.305c-.008.094-.008.094-.055.144q-.14.005-.273.004h-.168q-.083-.005-.176-.004h-.606c-.058-.117-.054-.191-.054-.324v-5.25c.011-.195.16-.148.324-.148m0 0" style="stroke:none;fill-rule:nonzero;fill:#baa474;fill-opacity:1"/><path d="m6.398 17.578.145.047v14.648c-.145-.144-.145-.144-.164-.257v-1.668q-.001-.465.004-.93v-1.34q-.001-1.09.004-2.176v-2.246q.005-.327.004-.656.001-2.708.007-5.422m0 0" style="stroke:none;fill-rule:nonzero;fill:#c1ac7f;fill-opacity:1"/><path d="M23.195 12.11c.117 0 .239-.005.36-.005h.105c.09 0 .176 0 .266.004.097.098.07.286.078.418q.002.053.004.106c.004.086.012.172.015.258h.149l.047.293h.097v-.246c.098.101.098.101.098.343h.734v-1.074h-.78v.684h-.052l-.003-.364v-.105q0-.13.003-.266c.094-.09.223-.054.348-.054h.234c.29 0 .29 0 .344.054q.01.134.008.262v.801c-.008.11-.008.11-.055.16q-.21.005-.414.004h-.117q-.152-.005-.297-.004h-.05c.027.137.054.262.097.39q.408.023.828.051.005.311.004.63c0 .062 0 .12.004.183v.332c-.008.12-.008.12-.055.172q-.208.005-.418.004h-.12q-.148-.005-.29-.004v-.051l.73-.047c.016-.371.032-.742.051-1.125h-.539l-.242-.047q-.005.043-.004.09c-.008.129-.011.262-.02.39q-.002.071-.003.141-.007.064-.008.133-.005.061-.004.121c-.012.102-.012.102-.062.2h-.243a5 5 0 0 1-.097.195c-.137 0-.274.004-.41.004h-.121q-.148.001-.301-.004c-.082-.086-.055-.203-.055-.32v-.833c.008-.117.008-.117.055-.164q.186-.018.37-.03c.052 0 .052 0 .106-.005.086-.004.172-.012.258-.015h-.488c.015-.082.031-.16.05-.247q.217.03.438.051l.047-.144.05-.051h-.78q-.023.048-.051.098a1.1 1.1 0 0 1-.051-.395v-.453q.005-.188.004-.371h.098v1.023h.73v-1.074h-.73q.021-.048.05-.098m-.05 1.757v1.172h.73v-1.125zm0 0" style="stroke:none;fill-rule:nonzero;fill:#b29e70;fill-opacity:1"/><path d="M4.64 16.797c.048.16.055.305.055.473v6.761c0 .782 0 1.559.004 2.34v6.621c-.011.113-.011.113-.11.211a7 7 0 0 1-.058-1v-.691c0-.18-.004-.364-.004-.543q.001-.534-.004-1.067v-.992q-.004-.128-.003-.25c0-.785-.004-1.566-.008-2.351 0-.672-.004-1.344-.004-2.016Q4.5 23.121 4.5 21.949q.001-.123-.004-.246v-.992q-.005-.527-.004-1.055.001-.27-.004-.539V18.07c.004-.101.004-.101.051-.148q.011-.11.016-.215.002-.063.004-.133.003-.066.007-.137.007-.135.008-.269c.004-.04.004-.078.008-.117.008-.106.008-.106.059-.254m0 0" style="stroke:none;fill-rule:nonzero;fill:#b09b6e;fill-opacity:1"/><path d="M27.05 8.203h.052v2.39c-.344-.046-.344-.046-.688-.144.02 2.48.035 4.965.05 7.52.032-.453.056-.895.06-1.348v-.191q.004-.252.003-.504.005-.268.004-.535.004-.499.008-1.004.004-.573.008-1.145c.004-.785.012-1.57.015-2.351h.047q.005 1.372.004 2.75v1.277q.005.556.004 1.113v1.348c0 .633 0 .633-.055.933-.12-.058-.12-.058-.242-.148-.035-.117-.035-.117-.043-.258 0-.078 0-.078-.004-.16q-.004-.082-.003-.168c0-.082 0-.082-.004-.164q-.005-.275-.004-.543v-2.328q.001-.564-.004-1.133v-2.726c.012-.137.012-.137.11-.38l.632.145c.02-.742.035-1.48.05-2.246m0 0" style="stroke:none;fill-rule:nonzero;fill:#ac996e;fill-opacity:1"/><path d="M22.43 24.89h.453q.18.006.355.005h.336c.235 0 .461.023.696.054V25h-2.051v5.86h.488v.046q.31.029.633.051v-.203q-.005-.375-.004-.75-.002-.166-.004-.324v-.47c-.004-.046-.004-.097-.004-.144v-.257c.012-.098.012-.098.11-.196.152-.008.152-.008.347-.008q.048.005.102.004.22.001.441.008.158-.001.32.004h.192c.168.004.168.004.308-.105v.097q.047.024.098.047c.078.07.078.07.145.149v.097l-.121-.047a2.1 2.1 0 0 0-.563-.07q-.057-.002-.113-.004-.172-.004-.344-.008-.116-.002-.238-.004c-.192-.003-.383-.011-.575-.015q-.001.04.004.086l.024.847q.001.164.008.32l.011.458q.005.07.004.14c.004.067.004.067.004.137q.002.053.004.117c-.008.094-.008.094-.105.192-.125.011-.125.011-.274.011h-.828c-.121-.011-.121-.011-.219-.109-.011-.105-.011-.105-.011-.238v-5.614c.027-.23.175-.214.37-.214m0 0" style="stroke:none;fill-rule:nonzero;fill:#ad9a6e;fill-opacity:1"/><path d="M22.047 32.512h.836c.117.008.117.008.164.058.004.07.008.145.008.215v5.305c-.008.094-.008.094-.055.144q-.14.005-.273.004h-.168q-.083-.005-.176-.004h-.606c-.058-.117-.054-.191-.054-.324v-5.25c.011-.195.16-.148.324-.148m-.219.105v5.516h1.121v-5.516zm0 0" style="stroke:none;fill-rule:nonzero;fill:#af9b70;fill-opacity:1"/><path d="M28.86 11.621q.104.036.214.07c.04.012.082.028.121.04.102.035.102.035.149.085q.01.123.008.246v1.559q.001.505-.004 1.004v1.14c0 .786 0 1.567-.004 2.352-.157.078-.332.07-.508.082-.04 0-.074.004-.113.008-.29.016-.29.016-.45-.09l.536-.101v-.047c.328-.055.328-.055.441 0v-6.102c-.113-.035-.227-.066-.344-.101zm0 0" style="stroke:none;fill-rule:nonzero;fill:#ad996f;fill-opacity:1"/><path d="M24.023 33.594h1.32c.052.203.055.39.06.601v.121q.004.204.003.407.005.14.004.28.004.294.008.587c.004.25.004.504.008.754q.004.288.008.578.002.142.003.277.002.199.004.39v.118c.004.156 0 .277-.05.426h1.125c-.102.101-.102.101-.207.113-.067-.004-.067-.004-.137-.004h-.449c-.375-.004-.375-.004-.43-.058q-.008-.21-.004-.418v-2.481q.005-.796.004-1.594c-.629-.023-.629-.023-1.27-.05zm0 0" style="stroke:none;fill-rule:nonzero;fill:#b09c72;fill-opacity:1"/><path d="M25.344 25.93a5 5 0 0 0-.102.195c-.89-.027-.89-.027-1.805-.05v1.562l.692-.012q.117-.005.234-.004.172-.004.336-.008h.106c.25-.008.414-.066.633-.172q.1-.029.195-.05v.101c-.324.192-.543.25-.926.25h-1.059c-.253-.004-.253-.004-.308-.055q-.007-.186-.008-.367v-1.039c.004-.25.004-.25.059-.304q.168-.011.343-.016.053.001.106-.004.168-.004.336-.008.111-.004.222-.008c.317-.007.63-.015.946-.011m0 0" style="stroke:none;fill-rule:nonzero;fill:#af9b70;fill-opacity:1"/><path d="M29.54 34.422c.132.066.151.137.222.266q.145.276.297.546.03.058.066.121.063.118.133.235.029.054.062.11.025.05.055.1c.074.15.102.27.098.434v1.098q-.005.35-.004.707h1.172v-.93h.047v1.024c-.153 0-.153 0-.31-.004-.171-.008-.171-.008-.323.004-.047.05-.047.05-.098.101-.137.008-.137.008-.3.004q-.079.001-.16-.004h-.126q.002-.093.004-.187c.07-1.586.07-1.586-.57-2.992-.153-.203-.266-.367-.266-.633m0 0" style="stroke:none;fill-rule:nonzero;fill:#b19d72;fill-opacity:1"/><path d="M28.172 32.57c.004.176.004.356.004.532q-.001.074.004.156v.281c-.008.102-.008.102-.055.152-.215.012-.43.008-.645.008-.109 0-.214.004-.324.004h-.394c-.153-.012-.153-.012-.246-.11h1.562q-.029-.456-.05-.929l-4.247-.047v-.047l1.61-.023.746-.012q.364-.001.722-.008c.094 0 .184-.004.278-.004q.192-.002.383-.003c.058-.004.058-.004.117-.004.183 0 .355.007.535.054m0 0" style="stroke:none;fill-rule:nonzero;fill:#ad996e;fill-opacity:1"/><path d="m24.172 17.188.047.097q.071-.022.148-.05.209-.006.418-.005h.117c.285 0 .285 0 .34.055.016.192.012.383.012.578v.321q-.001.068.004.144a.7.7 0 0 1-.11.324q.07.099.145.196c-.098.03-.191.066-.293.097v-.437h-.125c-.078.004-.078.004-.16.004q-.083.002-.164.004c-.137-.008-.137-.008-.235-.11-.011-.101-.011-.101-.007-.23v-.285q.004-.074.003-.149-.001-.178.004-.36l-.293-.046q.072-.029.149-.05zm.242.148v1.07c.371.02.371.02.734-.047.079-.16.055-.336.055-.511v-.118c.004-.203.004-.203-.055-.394zm0 0" style="stroke:none;fill-rule:nonzero;fill:#b09d70;fill-opacity:1"/><path d="M23.977 10.352v.632q0 .09.003.18v.336c-.003.121-.003.121-.054.172-.14.008-.278.02-.418.027-.04 0-.078.004-.121.004-.098.004-.196.012-.293.016-.063-.133-.051-.239-.051-.387v-.535q.005-.223.004-.445c.137-.067.258-.07.41-.082l.168-.016c.156 0 .219.023.352.098m-.832.046v1.172h.73v-1.172zm0 0" style="stroke:none;fill-rule:nonzero;fill:#ae9a71;fill-opacity:1"/><path d="M22.258 12.102h.097c.247 0 .247 0 .301.054q.007.134.008.262v.801c-.008.11-.008.11-.055.16q-.21.005-.422.004h-.117q-.146-.005-.293-.004c0-.027-.004-.059-.004-.086-.003-.133-.011-.262-.015-.395q-.004-.066-.008-.136-.001-.064-.008-.133.001-.058-.004-.121c-.008-.113-.008-.113-.058-.25h-.098v-.102c.227-.043.441-.054.676-.054m-.383.105v1.074c.156.012.156.012.313.028q.086.008.18.015c.046 0 .093.004.14.004.062-.047.062-.047.055-.152v-.59c-.004-.125-.004-.254-.004-.379zm0 0" style="stroke:none;fill-rule:nonzero;fill:#b09d74;fill-opacity:1"/><path d="M24.453 8.637h.23q.06.005.126.004h.437v.609q-.001.088.004.176v.32c-.004.117-.004.117-.055.164q-.21.01-.414.008h-.117c-.293 0-.293 0-.348-.055a6 6 0 0 1-.007-.258v-.8c.011-.16.011-.16.144-.168m-.039.101v1.075h.734V8.738zm0 0" style="stroke:none;fill-rule:nonzero;fill:#ad9a6e;fill-opacity:1"/><path d="M22.43 24.89h.453q.18.006.355.005h.336c.235 0 .461.023.696.054V25h-2.051v1.563h-.098c-.074-1.333-.074-1.333-.05-1.563.12-.121.19-.11.359-.11m0 0" style="stroke:none;fill-rule:nonzero;fill:#a5946b;fill-opacity:1"/><path d="M27.742 14.254h.192q.093-.001.191.004h.148q.002.264.004.523-.001.076.004.153v.277a.65.65 0 0 1-.11.316 9 9 0 0 0-.335-.02l-.191-.015c-.153-.015-.153-.015-.204-.062a4 4 0 0 1 0-.39h.051l.047.292v-.094c0-.136-.004-.277-.004-.414v-.418c.008-.164.04-.148.207-.152m-.105.101v.926h.535v-.926zm0 0" style="stroke:none;fill-rule:nonzero;fill:#ad996e;fill-opacity:1"/><path d="M22.012 10.348h.351q.147.005.293.004.004.314.008.628v.352c.004.055.004.105.004.16-.012.13-.012.13-.11.227-.132 0-.261-.008-.398-.02q-.051-.001-.11-.008a6 6 0 0 0-.273-.02q-.002-.315-.004-.632v-.515c.008-.2.032-.172.239-.176m-.137.101v1.121h.684v-1.172c-.41-.011-.41-.011-.684.051m0 0" style="stroke:none;fill-rule:nonzero;fill:#ad9a71;fill-opacity:1"/><path d="M22.105 13.813h.224c.273 0 .273 0 .327.054.012.203.008.406.008.606q.002.087.004.175v.317c-.012.12-.012.12-.11.223a7 7 0 0 1-.507-.028l-.274-.023q-.002-.317-.004-.633v-.516c.008-.23.133-.175.332-.175m-.027.074c-.039.008-.074.011-.117.015l-.086.012a1 1 0 0 0-.055.363v.625c-.004.09-.004.09.055.137a9 9 0 0 0 .492.043q.07.005.14.004c.063-.047.063-.047.055-.156v-.617q-.004-.2-.003-.399a1.3 1.3 0 0 0-.48-.027m0 0" style="stroke:none;fill-rule:nonzero;fill:#b09b72;fill-opacity:1"/><path d="m18.898 16.164.047.094.098-.047q.186-.007.371-.008h.102c.254 0 .254 0 .308.055q.007.115.008.23v.7c-.008.097-.008.097-.059.148q-.18.005-.363.004h-.105c-.254 0-.254 0-.313-.055-.004-.066-.012-.133-.012-.195q-.006-.063-.007-.121-.004-.062-.008-.125-.002-.064-.004-.13c-.004-.1-.012-.206-.016-.308h-.047zm.196.145v.925h.633v-.925zm0 0" style="stroke:none;fill-rule:nonzero;fill:#b19e71;fill-opacity:1"/><path d="M19.438 17.719h.187c.148.008.148.008.2.054q.006.12.007.239v.734c-.008.102-.008.102-.059.152q-.18.005-.363.004h-.105c-.254 0-.254 0-.313-.054q-.005-.119-.004-.239v-.148q.005-.076.004-.152v-.536c.149-.074.281-.054.445-.054m-.344.152q-.01.104-.008.207v.129q.005.063.004.133v.133q-.001.164.004.324h.633v-.977h-.29c-.082 0-.082 0-.164-.004-.128-.007-.128-.007-.18.055m0 0" style="stroke:none;fill-rule:nonzero;fill:#ac996e;fill-opacity:1"/><path d="M24.664 12.102h.234c.29 0 .29 0 .344.054q.01.134.008.262v.801c-.008.11-.008.11-.055.16q-.21.007-.414.008h-.117c-.293 0-.293 0-.348-.059-.007-.129-.003-.258 0-.39.098.101.098.101.098.343h.734v-1.074h-.78v.684h-.052l-.003-.364v-.105q0-.13.003-.266c.094-.09.223-.054.348-.054m0 0" style="stroke:none;fill-rule:nonzero;fill:#ab996e;fill-opacity:1"/><path d="M23.195 17.234h.36q.053.001.105-.004c.09 0 .176.004.266.004.082.086.054.196.054.309v.801c-.003.113-.003.113-.054.164q-.21.005-.414.004h-.117c-.293 0-.293 0-.348-.055-.004-.078-.004-.16-.004-.238v-.457q.005-.19.004-.38l.098-.046v1.07h.73l-.047-1.07c-.21-.02-.418-.035-.633-.05zm0 0" style="stroke:none;fill-rule:nonzero;fill:#ac996f;fill-opacity:1"/><path d="M23.094 8.594q.21.012.414.02.058.003.117.007c.297.016.297.016.352.07q.004.129.003.258v.801c-.003.113-.003.113-.054.164q-.21.005-.414.004h-.117c-.293 0-.293 0-.348-.055-.004-.078-.004-.152-.004-.23v-.434q.005-.18.004-.363h.047v.976h.781v-1.07h-.73a2 2 0 0 0-.051-.148m0 0" style="stroke:none;fill-rule:nonzero;fill:#ad9a6f;fill-opacity:1"/><path d="M28.172 12.598c.105.156.113.203.11.382v.426c-.005.356-.005.356-.06.414q-.157.005-.316.004h-.176c-.144-.004-.144-.004-.19-.054a5 5 0 0 1-.009-.239v-.734c.008-.102.008-.102.055-.149.207-.011.39 0 .586.047zm-.535.144v.977h.535v-.926c-.18-.07-.18-.07-.535-.05m0 0" style="stroke:none;fill-rule:nonzero;fill:#ae9a70;fill-opacity:1"/><path d="M19.773 11.477v1.265q-.176.005-.359.004c-.039 0-.078.004-.117.004q-.127-.001-.254-.008c-.113-.11-.059-.383-.059-.531v-.27c0-.062 0-.062-.004-.12.012-.102.012-.102.114-.2.086-.031.176-.055.261-.078q.075-.022.145-.04c.129-.026.129-.026.273-.026m-.632.242c-.051.203-.055.394-.051.601v.184q-.001.07.004.144c.23.036.402.051.633 0q.002-.203.003-.406v-.328a1.3 1.3 0 0 0-.05-.293c-.196 0-.352.05-.54.098m0 0" style="stroke:none;fill-rule:nonzero;fill:#ad996f;fill-opacity:1"/><path d="M19.14 13.086q.145.013.29.02.082.004.164.015c.133.012.133.012.18.063.007.078.007.16.007.238v.734c-.008.102-.008.102-.054.149a5 5 0 0 1-.344.008h-.188c-.152-.008-.152-.008-.203-.055q-.005-.116-.004-.23v-.137q.005-.075.004-.149v-.508q.074-.029.149-.05zm-.046.195v.93h.289q.076.002.16.004c.129.008.129.008.184-.055q.006-.098.007-.195v-.598c0-.086 0-.086-.054-.133-.207-.015-.38.016-.586.047m0 0" style="stroke:none;fill-rule:nonzero;fill:#ac996d;fill-opacity:1"/><path d="M14.695 20.898c.196.04.375.118.559.192l.098.039q.139.057.273.113.07.023.14.051c.102.043.102.043.153.145a23 23 0 0 1-.926-.247q.023.023.047.051l.106.106c.128.132.27.25.414.363l.066.066v.098q.06.02.117.04.066.028.125.058.028.072.051.144c-.227-.07-.371-.199-.535-.36l-.153-.14-.07-.07c-.101-.09-.21-.172-.316-.258-.117-.125-.117-.125-.196-.242q.024-.074.047-.149m0 0" style="stroke:none;fill-rule:nonzero;fill:#ab9a70;fill-opacity:1"/><path d="M28.64 32.516h.727q.235.005.465.004v.097l-1.219.047q.08.14.16.285.076.134.153.274l.105.187c.051.09.106.18.153.274q.046.075.093.164c.067.136.067.136.067.28a1.6 1.6 0 0 1-.348-.46c-.031-.05-.058-.105-.086-.156-.027-.055-.058-.106-.086-.164-.031-.051-.058-.106-.09-.16-.242-.454-.242-.454-.27-.622.052-.046.052-.046.177-.05m0 0" style="stroke:none;fill-rule:nonzero;fill:#ae9c73;fill-opacity:1"/><path d="M22.898 22.852a1.7 1.7 0 0 1-.523.175 3 3 0 0 1-.172.04c-.043.011-.09.019-.133.027l.09-.008q.2-.02.406-.04.064-.004.141-.015c.227-.02.453-.039.684-.031v.047h-.246v.098a10 10 0 0 1-1.66.097v-.097c.453-.16.93-.329 1.413-.293m0 0" style="stroke:none;fill-rule:nonzero;fill:#a6946c;fill-opacity:1"/><path d="M28.172 15.773c.035.016.066.032.101.047v1.075c-.152.05-.261.054-.421.054h-.149c-.117-.004-.117-.004-.164-.054a4 4 0 0 1-.008-.227v-.7c.008-.1.008-.1.055-.148q.14-.005.273-.004.074-.001.149.004h.117v.047q-.238.028-.488.051v.926q.286-.024.586-.047l-.024-.184a7 7 0 0 1-.027-.84m0 0" style="stroke:none;fill-rule:nonzero;fill:#ac986e;fill-opacity:1"/><path d="M11.375 40.281c.234.086.441.207.652.336q.053.03.106.063.264.153.523.32.222.135.45.258c.503.27.503.27.714.441v.098a3 3 0 0 1-.468-.223c-.04-.027-.082-.05-.125-.078l-.137-.082c-.098-.055-.192-.113-.29-.172q-.07-.042-.148-.086c-.152-.093-.304-.18-.46-.27l-.149-.085-.285-.164c-.043-.028-.086-.051-.13-.078q-.057-.031-.116-.063c-.086-.066-.086-.066-.137-.215m0 0" style="stroke:none;fill-rule:nonzero;fill:#b09c73;fill-opacity:1"/><path d="M17.648 29.684h1.234q.399.004.798.003.016.07.039.145c.027.074.027.074.058.148q.07.024.145.047l-.242-.047c-.028-.097-.028-.097-.051-.195l-2.293.047v-.098c.113-.054.184-.054.312-.05m0 0" style="stroke:none;fill-rule:nonzero;fill:#ab9870;fill-opacity:1"/><path d="M31.398 26.27c.125.132.145.19.153.378 0 .051-.004.106-.008.157q.048-.048.098-.094c.105-.012.105-.012.234-.012h.14q.07.005.145.004h.145q.181.004.36.008.027-.074.05-.148v.097h.097l-.046.246h-.633c-.063 0-.121 0-.184.004h-.332c-.125-.004-.125-.004-.172-.055a4 4 0 0 1-.054-.242c-.008-.043-.02-.086-.028-.133-.015-.113-.015-.113.035-.21m0 0" style="stroke:none;fill-rule:nonzero;fill:#ae9b6f;fill-opacity:1"/><path d="M24.367 13.82h.875q.005.311.004.63c0 .062 0 .12.004.183v.332c-.008.12-.008.12-.055.172q-.208.005-.418.004h-.12q-.148-.005-.29-.004v-.051l.73-.047c.016-.371.032-.742.051-1.125h-.539l-.242-.047zm0 0" style="stroke:none;fill-rule:nonzero;fill:#a8956b;fill-opacity:1"/><path d="M22.559 15.43c.03.015.066.03.097.047v.343l-.097-.047v-.148h-.684v1.172q-.045-.023-.098-.047-.002-.292-.004-.586v-.477c.004-.109.004-.109.055-.16q.18-.005.367-.004h.106q.129.005.258.004zm0 0" style="stroke:none;fill-rule:nonzero;fill:#af9a6f;fill-opacity:1"/><path d="M32.57 20.215c.305-.012.555.031.848.113q.058.016.121.031c.348.094.695.203 1.031.344v.098a3.3 3.3 0 0 1-.703-.188 6 6 0 0 0-1.062-.27c-.14-.03-.14-.03-.235-.128m0 0" style="stroke:none;fill-rule:nonzero;fill:#b19c72;fill-opacity:1"/><path d="M23.707 15.523q.06-.001.125.004h.094c.062.125.054.215.054.352v.152q-.004.08-.003.16v.559h-.051c-.024-.559-.024-.559-.051-1.125l-.34.047h-.39c-.016.355-.032.71-.051 1.078h-.047v-1.172c.437-.058.437-.058.66-.055m0 0" style="stroke:none;fill-rule:nonzero;fill:#a6946c;fill-opacity:1"/><path d="M23.781 47.07c.047.004.047.004.098.012.433.04.867.043 1.305.04h.218q.264.001.528-.005a2 2 0 0 1-.149.051v.098q-.3.005-.601.004l-.203.003c-.38.004-.735.004-1.102-.105zm0 0" style="stroke:none;fill-rule:nonzero;fill:#b09c75;fill-opacity:1"/><path d="M24.316 15.578h.926q.005.289.004.582-.001.082.004.168v.309c-.008.113-.008.113-.055.16q-.208.005-.418.004h-.12q-.148-.005-.29-.004v-.047q.385-.029.781-.05c0-.348.004-.684-.05-1.028q-.051.005-.11.004h-.144c-.07 0-.07 0-.14.004a1.8 1.8 0 0 1-.388-.055zm0 0" style="stroke:none;fill-rule:nonzero;fill:#a79568;fill-opacity:1"/><path d="M32.227 32.57h1.367v.047h-1.27c-.031.098-.066.196-.097.293a3 3 0 0 1-.118.223q-.03.052-.066.117-.03.06-.066.117l-.07.125-.169.297c-.047-.129-.054-.184-.004-.312l.067-.125q.036-.062.066-.125c.031-.051.059-.106.086-.157q.134-.25.274-.5m0 0" style="stroke:none;fill-rule:nonzero;fill:#b09e72;fill-opacity:1"/><path d="M19.773 30.078c.094.137.149.258.204.41.015.047.035.094.05.14.043.134.043.134.043.329h1.266q.029-.048.05-.098v.196l-.648.011q-.094.005-.187.004c-.09.004-.09.004-.18.004-.082 0-.082 0-.164.004-.137-.023-.137-.023-.227-.113a1.58 1.58 0 0 1-.207-.887m0 0" style="stroke:none;fill-rule:nonzero;fill:#ae9c72;fill-opacity:1"/><path d="M21.96 17.23c.08 0 .08 0 .161.004h.294v.051h-.54v1.172h.734v.05a12 12 0 0 0-.5.036l-.28.012c-.087-.086-.06-.203-.06-.32v-.833c.012-.168.02-.164.192-.172m0 0" style="stroke:none;fill-rule:nonzero;fill:#ad9a6f;fill-opacity:1"/><path d="M19.207 14.691c.07 0 .137.004.207.004h.359c-.156.094-.27.11-.449.106-.078 0-.152-.004-.23-.004v.926q.047.021.093.05-.068.048-.144.094c-.125-.23-.102-.437-.082-.695q.004-.058.008-.121c.023-.352.023-.352.238-.36m0 0" style="stroke:none;fill-rule:nonzero;fill:#ae9c71;fill-opacity:1"/><path d="M23.586 7.324h1.805c-.215.16-.317.164-.567.149q-.051.001-.11-.004l-.335-.012-.23-.012-.563-.023zm0 0" style="stroke:none;fill-rule:nonzero;fill:#ad9970;fill-opacity:1"/><path d="M27.93 29.59c.05.105.105.207.152.312.246.504.535.809 1.066 1.004v.051c-.406-.016-.648-.242-.918-.535-.214-.258-.324-.485-.3-.832m0 0" style="stroke:none;fill-rule:nonzero;fill:#af9c72;fill-opacity:1"/><path d="M31.64 20.117q.223-.002.438-.004h.125c.258 0 .504.016.758.051v.05c-.07.013-.07.013-.14.02-.157.028-.157.028-.301.078-.098 0-.098 0-.208-.007q-.059-.002-.117-.004l-.125-.008-.125-.008q-.152-.012-.304-.02zm0 0" style="stroke:none;fill-rule:nonzero;fill:#bca97c;fill-opacity:1"/><path d="M34.813 9.668a4.4 4.4 0 0 1 .667.324q.105.06.215.117v.094q.06.022.125.04c.176.062.309.148.461.257-.148.047-.148.047-.254 0l-.125-.07a2 2 0 0 0-.136-.078q-.065-.044-.141-.086c-.047-.028-.09-.055-.14-.082l-.376-.223a2 2 0 0 1-.136-.074c-.11-.075-.11-.075-.16-.219m0 0" style="stroke:none;fill-rule:nonzero;fill:#b09d73;fill-opacity:1"/><path d="M19.578 36.133h1.274l.046.195h-.148v-.098h-1.121a4 4 0 0 1-.05.196zm0 0" style="stroke:none;fill-rule:nonzero;fill:#ad9c71;fill-opacity:1"/><path d="M15.672 34.813h.05q-.001.053.005.105c.02.879.02.879.14 1.754-.144-.102-.144-.102-.18-.195-.105-.555-.058-1.102-.015-1.664m0 0" style="stroke:none;fill-rule:nonzero;fill:#ae9b70;fill-opacity:1"/><path d="M17.531 37.012c.032.011.063.027.098.039l.129.054q.064.028.129.055c.125.043.246.074.375.098v.047h.586c-.149.148-.32.117-.52.117q-.058.005-.121.004c-.309-.008-.488-.063-.727-.27zm0 0" style="stroke:none;fill-rule:nonzero;fill:#bbaa7c;fill-opacity:1"/><path d="M25.047 10.11q.029.046.05.093h.247a1 1 0 0 0-.051.102c-.012.097-.02.199-.027.297l-.012.164c-.004.058-.004.058-.012.125h-.047v-.54q-.095.024-.195.047-.165.008-.328.004h-.176q-.064.001-.129-.004a2 2 0 0 0-.05.149c.015-.082.03-.16.05-.242.313-.028.313-.028.633-.051zm0 0" style="stroke:none;fill-rule:nonzero;fill:#ae9a6f;fill-opacity:1"/><path d="M25.684 30.227h.05q.024.356.047.73h1.27v.05q-.329.012-.656.028-.094.001-.188.008c-.09.004-.09.004-.18.004q-.086.007-.168.008c-.125 0-.125 0-.175-.047q-.005-.2-.004-.395V30.5q.005-.14.004-.273m0 0" style="stroke:none;fill-rule:nonzero;fill:#ab986e;fill-opacity:1"/><path d="M41.016 38.77q.045.021.097.05h-.144q.023-.029.047-.05m-.196.097q.072.023.149.047c-.258.281-.54.508-.93.54.063-.192.133-.204.309-.294.199-.101.199-.101.382-.23q.046-.034.09-.063m0 0" style="stroke:none;fill-rule:nonzero;fill:#bea97e;fill-opacity:1"/><path d="M13.77 39.55c.046.016.093.036.14.052.145.062.145.062.25 0 .13.062.13.062.274.156l.148.094q.06.041.113.09v.144c-.093-.012-.093-.012-.195-.047q-.024-.072-.047-.148l-.09.035-.105.015c-.063-.058-.063-.058-.149-.144a5 5 0 0 0-.34-.195zm0 0" style="stroke:none;fill-rule:nonzero;fill:#bca97e;fill-opacity:1"/><path d="m19.29 5.031.093.047-.09.09c-.11.105-.11.105-.2.254v-.149q-.05.032-.1.063-.065.041-.134.082c-.043.027-.086.05-.129.078a1 1 0 0 1-.324.121c.313-.394.313-.394.54-.492q.07.029.148.05c.105-.066.105-.066.195-.144m0 0" style="stroke:none;fill-rule:nonzero;fill:#beaa7d;fill-opacity:1"/><path d="M45.313 32.078h.046v.883h.051v.34c-.031.015-.066.031-.097.05-.036.09-.036.09-.055.196l-.024.11q-.008.04-.02.085h-.05a2.4 2.4 0 0 1 .047-.586c.07-.355.086-.715.102-1.078m0 0" style="stroke:none;fill-rule:nonzero;fill:#bea97c;fill-opacity:1"/><path d="M33.398 20.703c.293.016.524.04.782.195v.098q-.104.004-.215.008h-.117c-.106-.008-.106-.008-.207-.106q-.07-.045-.145-.097zm0 0" style="stroke:none;fill-rule:nonzero;fill:#a1906a;fill-opacity:1"/><path d="M24.367 11.23h.047v.34h.781v-.242h.047q.006.147 0 .293c-.047.05-.047.05-.234.055-.074 0-.153-.004-.23-.004h-.411c-.058-.172-.035-.27 0-.442m0 0" style="stroke:none;fill-rule:nonzero;fill:#ae996e;fill-opacity:1"/><path d="M25.191 45.137q.087.007.172.008.209.011.418.02v.05c-.515.058-1.05.097-1.562 0v-.05c.324-.063.644-.044.972-.028m0 0" style="stroke:none;fill-rule:nonzero;fill:#b09c71;fill-opacity:1"/><path d="m31.02 25.93.082.093q-.075-.006-.157-.02c-.23-.03-.46-.042-.691-.058-.129-.015-.129-.015-.274-.117q.176-.01.356-.027a1 1 0 0 0 .098-.008c.402-.027.402-.027.586.137m0 0" style="stroke:none;fill-rule:nonzero;fill:#b09c70;fill-opacity:1"/><path d="M21.777 12.547h.051l.047.734c.074 0 .152-.004.23-.004.172 0 .332.008.504.051v.05h-.832zm0 0" style="stroke:none;fill-rule:nonzero;fill:#a9966d;fill-opacity:1"/><path d="m32.766 20.555.25.023a3.335 3.335 0 0 1 .531.078q-.029.07-.05.145h-.684c.062-.031.128-.067.195-.098l-.293-.047a1 1 0 0 1 .05-.101m0 0" style="stroke:none;fill-rule:nonzero;fill:#af9c6e;fill-opacity:1"/><path d="M31.348 20.07v.094c-.176.117-.262.113-.47.113-.081.004-.081.004-.167.004l-.145-.015c-.03-.051-.066-.098-.097-.149l.383-.023.113-.008c.273-.016.273-.016.383-.016m0 0" style="stroke:none;fill-rule:nonzero;fill:#c1aa7a;fill-opacity:1"/><path d="M29.344 29.836q.18.054.363.11l.102.03c.257.087.257.087.367.25-.27-.019-.453-.046-.684-.195h-.195q.023-.1.047-.195m0 0" style="stroke:none;fill-rule:nonzero;fill:#bba77f;fill-opacity:1"/><path d="M22.5 44.488c.07.043.07.043.145.086.07.043.07.043.144.086q.058.03.11.067v.148q-.119-.029-.243-.05v-.098l-.242-.047v-.102l-.246-.047c.137-.097.172-.105.332-.043m0 0" style="stroke:none;fill-rule:nonzero;fill:#bda87e;fill-opacity:1"/><path d="M42.285 35.5h.098a.4.4 0 0 1-.149.29c-.109.112-.129.187-.144.343l-.145-.047c-.105.016-.105.016-.195.047q.023-.046.047-.098h.098q.021-.072.05-.144c.117-.133.117-.133.242-.246h.098zm-.34.633q.024.045.047.097-.045-.021-.097-.05zm0 0" style="stroke:none;fill-rule:nonzero;fill:#bda97d;fill-opacity:1"/><path d="M28.758 28.027c.035.012.066.028.097.04.184.07.368.128.555.187l.11.035c.09.027.175.055.265.078v.051a1.63 1.63 0 0 1-.926-.195c-.066-.106-.066-.106-.101-.196m0 0" style="stroke:none;fill-rule:nonzero;fill:#ac986f;fill-opacity:1"/><path d="M22.898 23c-.144.145-.32.117-.515.125q-.058.004-.121.008l-.29.012c.13-.13.235-.141.41-.184q.081-.019.169-.043c.16-.02.219-.008.347.082m0 0" style="stroke:none;fill-rule:nonzero;fill:#b4a176;fill-opacity:1"/><path d="m25.781 2.832.282.012c.05.004.105.004.156.008.176.035.234.09.343.226-.382-.043-.382-.043-.437-.101-.074 0-.152-.004-.227 0h-.214c.03-.047.066-.094.097-.145m0 0" style="stroke:none;fill-rule:nonzero;fill:#bdab7d;fill-opacity:1"/><path d="M18.992 16.797h.102a.94.94 0 0 1 0 .488h.68v.05h-.36q-.053-.001-.105.005c-.09 0-.176-.004-.266-.004-.05-.05-.05-.05-.055-.164q.002-.063.004-.133v-.242m0 0" style="stroke:none;fill-rule:nonzero;fill:#aa986d;fill-opacity:1"/><path d="M41.895 11.672h.097v.094q.096.029.196.05c.015-.03.03-.066.046-.097.23.176.23.176.297.242v.148h-.148v-.097c-.028-.012-.051-.028-.078-.04q-.206-.103-.41-.206zm0 0" style="stroke:none;fill-rule:nonzero;fill:#bdaa7f;fill-opacity:1"/><path d="M40.137 10.5q.099.041.191.082l.11.05c.09.063.09.063.124.165a1 1 0 0 0 .016.094c-.18-.036-.328-.114-.492-.196q.029-.1.05-.195m0 0" style="stroke:none;fill-rule:nonzero;fill:#bda97e;fill-opacity:1"/><path d="M16.258 22.266c.289.086.558.214.832.343v.047a1.7 1.7 0 0 1-.781-.242 2 2 0 0 0-.051-.148m0 0" style="stroke:none;fill-rule:nonzero;fill:#ac9b72;fill-opacity:1"/><path d="M27.586 14.258a5 5 0 0 1 .387.035l.105.012v.05h-.441v.782h-.051q-.011-.206-.027-.41-.001-.061-.008-.122l-.012-.3zm0 0" style="stroke:none;fill-rule:nonzero;fill:#b2a074;fill-opacity:1"/><path d="M16.602 37.793q.241.119.476.25c.07.039.07.039.145.078q.057.034.113.063v.05c-.285-.02-.48-.093-.688-.297zm0 0" style="stroke:none;fill-rule:nonzero;fill:#ad9a70;fill-opacity:1"/><path d="M7.91 11.621c.031.016.067.031.098.05.101-.019.101-.019.195-.05-.16.238-.418.344-.683.441.113-.164.246-.3.39-.44m0 0" style="stroke:none;fill-rule:nonzero;fill:#beab7e;fill-opacity:1"/><path d="M12.648 11.035q.048.023.094.05-.07.025-.144.048c-.004.031-.012.062-.016.094l-.035.101c-.149.063-.149.063-.29.098v-.196c.063-.035.126-.066.188-.101.035-.02.07-.035.106-.055.031-.011.062-.027.097-.039m0 0" style="stroke:none;fill-rule:nonzero;fill:#bda97d;fill-opacity:1"/><path d="m39.695 37.453.102.047-.266.176-.144.097q-.064.03-.13.07a1 1 0 0 0-.097-.05c.05-.14.082-.188.219-.258.121-.035.121-.035.223-.035zm0 0" style="stroke:none;fill-rule:nonzero;fill:#beab81;fill-opacity:1"/><path d="M33.887 20.508c.234.047.46.094.683.195v.098a3 3 0 0 1-.586-.145v-.101zm0 0" style="stroke:none;fill-rule:nonzero;fill:#a6946f;fill-opacity:1"/><path d="M25.438 28.906c.156.106.183.153.23.328.035.23.023.465.016.696h-.051l-.016-.13-.023-.171q-.011-.084-.028-.168a1.8 1.8 0 0 0-.128-.406zm0 0" style="stroke:none;fill-rule:nonzero;fill:#a9966d;fill-opacity:1"/><path d="M19.29 10.008c.124.191.097.332.077.547-.004.039-.008.074-.008.113l-.023.27h-.047q-.016-.176-.031-.356a1 1 0 0 0-.008-.098c-.012-.168-.02-.316.04-.476m0 0" style="stroke:none;fill-rule:nonzero;fill:#ab9a70;fill-opacity:1"/><path d="M24.414 17.234h.387q.057.001.113-.004.141.002.281.004c.047.051.047.051.051.2 0 .046 0 .097-.004.144-.094-.148-.094-.148-.094-.242-.242-.02-.484-.035-.734-.05zm0 0" style="stroke:none;fill-rule:nonzero;fill:#a8956b;fill-opacity:1"/><path d="M36.133 8.3a1 1 0 0 1 .09.028c.109.031.109.031.203-.027.129.07.129.07.246.144a2 2 0 0 0-.05.149 2.5 2.5 0 0 1-.49-.242zm0 .098.047.098q-.048-.023-.094-.05zm0 0" style="stroke:none;fill-rule:nonzero;fill:#bdaa7e;fill-opacity:1"/><path d="M37.695 40.723q.072.021.149.05-.028.07-.051.145a1 1 0 0 1-.39.098l-.098-.047.113-.07q.142-.083.277-.176m0 0" style="stroke:none;fill-rule:nonzero;fill:#bea87e;fill-opacity:1"/><path d="m19.68 34.375.047.098h.78v.05q-.075.001-.152.008l-.203.012c-.047.004-.047.004-.097.004a2.2 2.2 0 0 0-.477.07l-.047-.094q.072-.073.149-.148m0 0" style="stroke:none;fill-rule:nonzero;fill:#ad9a6f;fill-opacity:1"/><path d="M14.941 21.14c.227.067.45.133.684.196v.05h-.54l-.046-.144h-.098zm0 0" style="stroke:none;fill-rule:nonzero;fill:#beab7e;fill-opacity:1"/><path d="M19.14 14.355h.438v.293h-.437v-.046q.058-.013.117-.02.066-.016.125-.031c.02-.031.035-.067.05-.098l-.292-.047zm0 0" style="stroke:none;fill-rule:nonzero;fill:#b59e6b;fill-opacity:1"/><path d="M37.258 11.035c.265.098.543.219.73.442l-.195.046v-.148l-.078-.035c-.156-.078-.305-.168-.457-.254zm0 0" style="stroke:none;fill-rule:nonzero;fill:#bdaa80;fill-opacity:1"/><path d="M36.523 41.406q.047.024.098.047v.149c-.098.03-.191.062-.293.097-.031-.031-.062-.066-.098-.097.098-.063.192-.13.293-.196m0 0" style="stroke:none;fill-rule:nonzero;fill:#beaa7d;fill-opacity:1"/><path d="M28.953 25.148q.051.024.102.047v.098a1 1 0 0 1-.082.008.75.75 0 0 0-.27.168c-.14.117-.14.117-.234.117a.6.6 0 0 1 .289-.332c.035-.024.07-.043.105-.067.032-.011.063-.027.09-.039m0 0" style="stroke:none;fill-rule:nonzero;fill:#bca87d;fill-opacity:1"/><path d="M21.777 3.516q.05.045.098.097-.131.077-.262.149l-.148.086c-.043.02-.082.039-.13.058l-.093-.047c.168-.144.332-.25.535-.343m0 0" style="stroke:none;fill-rule:nonzero;fill:#b6a276;fill-opacity:1"/><path d="M32.031 27.734c.235.121.235.121.285.254q.001.043.008.09a5 5 0 0 1-.441-.195 1 1 0 0 0 .05-.102q.05.029.098.051zM23.39 20.41c-.132.133-.265.18-.44.246-.118-.015-.118-.015-.196-.05.215-.215.348-.215.637-.196m0 0" style="stroke:none;fill-rule:nonzero;fill:#bca97d;fill-opacity:1"/><path d="M28.516 46.14q.045.03.097.051c-.21.243-.21.243-.383.258-.05-.008-.05-.008-.105-.011v-.102q.094-.048.188-.098.052-.03.109-.058.046-.017.094-.04m0 0" style="stroke:none;fill-rule:nonzero;fill:#bca97e;fill-opacity:1"/><path d="M11.133 37.988a1.2 1.2 0 0 1 .293 0c.117.098.117.098.195.196-.144.05-.144.05-.234.011a9 9 0 0 0-.254-.156zm0 0" style="stroke:none;fill-rule:nonzero;fill:#bda97e;fill-opacity:1"/><path d="M40.04 37.305q-.12.076-.24.148c-.042.027-.09.055-.132.086l-.117.059c-.031-.016-.067-.032-.098-.051.367-.309.367-.309.586-.242m0 0" style="stroke:none;fill-rule:nonzero;fill:#b5a175;fill-opacity:1"/><path d="M21.633 5.762q.046.022.094.05l-.207.141c-.055.04-.055.04-.118.082a.9.9 0 0 1-.308.117c.16-.18.324-.285.539-.39m0 0" style="stroke:none;fill-rule:nonzero;fill:#bba97f;fill-opacity:1"/><path d="M7.031 15.332c0 .172-.011.32-.047.488-.101.07-.101.07-.195.098.035-.195.102-.445.242-.586m0 0" style="stroke:none;fill-rule:nonzero;fill:#bea97e;fill-opacity:1"/><path d="M5.371 14.453c.05.149.05.149 0 .258l-.07.117q-.036.058-.07.121-.028.043-.055.09c-.067-.129-.031-.203 0-.344q.072-.022.144-.047c.04-.097.04-.097.051-.195m0 0" style="stroke:none;fill-rule:nonzero;fill:#bfaa7e;fill-opacity:1"/><path d="M34.031 43.016v.101c-.078.063-.078.063-.187.13q-.052.035-.106.066l-.097.046q-.048-.022-.094-.047.076-.076.16-.148l.09-.082c.09-.066.09-.066.234-.066m0 0" style="stroke:none;fill-rule:nonzero;fill:#b8a477;fill-opacity:1"/><path d="M6.543 33.203c.102.078.102.078.195.195-.011.184-.011.184-.05.344-.125-.191-.122-.316-.145-.539m0 0" style="stroke:none;fill-rule:nonzero;fill:#bdaa7f;fill-opacity:1"/><path d="M14.797 42.234h.39a2 2 0 0 0-.05.149l.05.097c-.167-.058-.277-.109-.39-.246m0 0" style="stroke:none;fill-rule:nonzero;fill:#c0ac7f;fill-opacity:1"/><path d="M31.102 29.98c0 .145 0 .145-.047.247h-.344c.121-.18.195-.192.39-.247m0 0" style="stroke:none;fill-rule:nonzero;fill:#bca87d;fill-opacity:1"/><path d="M16.113 43.016c.176.066.328.148.489.246-.102.027-.188.05-.293.05a2 2 0 0 0-.051-.148c-.07-.082-.07-.082-.145-.148m0 0" style="stroke:none;fill-rule:nonzero;fill:#bfac82;fill-opacity:1"/><path d="M17.234 8.352c.036.015.067.03.102.046q-.029.072-.05.149c-.056.008-.056.008-.114.02-.137.027-.137.027-.277.074v-.094c.257-.16.257-.16.34-.195m0 0" style="stroke:none;fill-rule:nonzero;fill:#bfac7e;fill-opacity:1"/><path d="M28.32 25.586q.072.023.149.047c-.184.289-.184.289-.297.344.094-.336.094-.336.148-.391m0 0" style="stroke:none;fill-rule:nonzero;fill:#bea97d;fill-opacity:1"/><path d="M26.805 10.203q.073.029.148.05v.247c-.098-.035-.195-.066-.293-.102l.145-.093zm0 0" style="stroke:none;fill-rule:nonzero;fill:#c0aa76;fill-opacity:1"/></svg>